<svg width="32" height="8" viewBox="0 0 32 8" fill="none" xmlns="http://www.w3.org/2000/svg">
    <path
        d="M15.9993 5.66668C16.9198 5.66668 17.666 4.92048 17.666 4.00001C17.666 3.07954 16.9198 2.33334 15.9993 2.33334C15.0789 2.33334 14.3327 3.07954 14.3327 4.00001C14.3327 4.92048 15.0789 5.66668 15.9993 5.66668Z"
        stroke="currentColor"
        stroke-width="4"
        stroke-linecap="round"
        stroke-linejoin="round"
    />
    <path
        d="M27.666 5.66668C28.5865 5.66668 29.3327 4.92048 29.3327 4.00001C29.3327 3.07954 28.5865 2.33334 27.666 2.33334C26.7455 2.33334 25.9993 3.07954 25.9993 4.00001C25.9993 4.92048 26.7455 5.66668 27.666 5.66668Z"
        stroke="currentColor"
        stroke-width="4"
        stroke-linecap="round"
        stroke-linejoin="round"
    />
    <path
        d="M4.33268 5.66668C5.25316 5.66668 5.99935 4.92048 5.99935 4.00001C5.99935 3.07954 5.25316 2.33334 4.33268 2.33334C3.41221 2.33334 2.66602 3.07954 2.66602 4.00001C2.66602 4.92048 3.41221 5.66668 4.33268 5.66668Z"
        stroke="currentColor"
        stroke-width="4"
        stroke-linecap="round"
        stroke-linejoin="round"
    />
</svg>
